<svg version="1.1" id="Layer_1" xmlns="http://www.w3.org/2000/svg" xmlns:xlink="http://www.w3.org/1999/xlink" x="0px" y="0px"
	 width="100%" viewBox="0 0 58 55" enable-background="new 0 0 58 55" xml:space="preserve">
<path fill="#FDFEFC" opacity="1.000000" stroke="none" 
	d="
M38.000557,56.000000 
	C25.333736,56.000000 13.167089,56.000000 1.000330,56.000000 
	C1.000220,37.666840 1.000220,19.333681 1.000110,1.000391 
	C20.333132,1.000261 39.666264,1.000261 58.999542,1.000130 
	C58.999695,19.333103 58.999695,37.666206 58.999847,55.999657 
	C52.166912,56.000000 45.333820,56.000000 38.000557,56.000000 
M22.828924,15.804471 
	C22.753267,17.819296 22.677610,19.834120 21.993814,22.130638 
	C18.304422,24.392759 14.615028,26.654881 10.227168,29.418463 
	C10.148616,32.029362 10.014221,34.640007 10.002348,37.251209 
	C9.971108,44.121742 10.715578,45.003475 18.729656,47.092800 
	C30.527643,41.695885 30.528778,41.695827 29.888798,28.957684 
	C29.872580,28.634901 29.760424,28.316938 29.878752,27.254471 
	C29.806400,26.499815 29.734047,25.745157 29.849342,24.142132 
	C30.061316,19.925320 30.797352,15.422305 24.411690,14.213111 
	C23.864153,14.063396 23.316616,13.913682 22.769079,13.763968 
	C22.877380,14.167302 22.985682,14.570637 22.828924,15.804471 
M39.760151,21.246061 
	C39.760151,18.722469 39.760151,16.198875 39.760151,13.371410 
	C31.558613,16.511740 31.352308,16.938231 32.253487,27.786592 
	C31.898411,41.780762 31.903212,41.790642 40.731728,45.236679 
	C47.921711,48.043148 52.112194,45.175194 52.086269,37.421196 
	C52.078007,34.949860 51.934353,32.478970 51.796947,29.327475 
	C47.766380,26.930170 43.735813,24.532866 39.760151,21.246061 
z"/>
<path fill="#F99E1F" opacity="1.000000" stroke="none" 
	d="
M51.852650,30.007877 
	C51.934353,32.478970 52.078007,34.949860 52.086269,37.421196 
	C52.112194,45.175194 47.921711,48.043148 40.731728,45.236679 
	C31.903212,41.790642 31.898411,41.780762 32.524864,27.147829 
	C33.208691,26.008080 33.621140,25.507093 34.061234,25.358097 
	C40.463810,34.983395 40.462002,34.979527 50.413780,30.324945 
	C50.847874,30.121912 51.370998,30.109228 51.852650,30.007877 
z"/>
<path fill="#25C6C5" opacity="1.000000" stroke="none" 
	d="
M29.693012,27.996727 
	C29.760424,28.316938 29.872580,28.634901 29.888798,28.957684 
	C30.528778,41.695827 30.527643,41.695885 18.368126,46.593704 
	C17.677910,41.729424 17.349220,37.364231 17.321371,33.032780 
	C19.394251,34.602242 20.403622,33.264961 21.848015,32.272224 
	C24.289307,30.594318 27.060520,29.396441 29.693012,27.996727 
z"/>
<path fill="#1ECFCE" opacity="1.000000" stroke="none" 
	d="
M29.785881,27.625599 
	C27.060520,29.396441 24.289307,30.594318 21.848015,32.272224 
	C20.403622,33.264961 19.394251,34.602242 17.011372,32.896370 
	C14.575568,31.456484 12.750602,30.186743 10.925635,28.917002 
	C14.615028,26.654881 18.304422,24.392759 22.644104,22.133362 
	C25.416826,23.087557 27.539259,24.039030 29.661694,24.990501 
	C29.734047,25.745157 29.806400,26.499815 29.785881,27.625599 
z"/>
<path fill="#FDBA1C" opacity="1.000000" stroke="none" 
	d="
M51.824799,29.667675 
	C51.370998,30.109228 50.847874,30.121912 50.413780,30.324945 
	C40.462002,34.979527 40.463810,34.983395 34.388237,25.322151 
	C36.360146,24.001331 38.032696,23.068447 39.705246,22.135563 
	C43.735813,24.532866 47.766380,26.930170 51.824799,29.667675 
z"/>
<path fill="#10ABAA" opacity="1.000000" stroke="none" 
	d="
M10.576402,29.167732 
	C12.750602,30.186743 14.575568,31.456484 16.710533,32.862633 
	C17.349220,37.364231 17.677910,41.729424 17.996597,46.545906 
	C10.715578,45.003475 9.971108,44.121742 10.002348,37.251209 
	C10.014221,34.640007 10.148616,32.029362 10.576402,29.167732 
z"/>
<path fill="#F89E30" opacity="1.000000" stroke="none" 
	d="
M39.732697,21.690811 
	C38.032696,23.068447 36.360146,24.001331 34.360588,24.970161 
	C33.621140,25.507093 33.208691,26.008080 32.632153,26.698509 
	C31.352308,16.938231 31.558613,16.511740 39.760151,13.371410 
	C39.760151,16.198875 39.760151,18.722469 39.732697,21.690811 
z"/>
<path fill="#15C3C2" opacity="1.000000" stroke="none" 
	d="
M29.755518,24.566317 
	C27.539259,24.039030 25.416826,23.087557 22.948174,21.992516 
	C22.677610,19.834120 22.753267,17.819296 23.362000,15.340904 
	C24.154684,14.806694 24.414291,14.736051 24.673897,14.665408 
	C30.797352,15.422305 30.061316,19.925320 29.755518,24.566317 
z"/>
<path fill="#1ECFCE" opacity="1.000000" stroke="none" 
	d="
M24.542793,14.439260 
	C24.414291,14.736051 24.154684,14.806694 23.494530,14.925654 
	C22.985682,14.570637 22.877380,14.167302 22.769079,13.763968 
	C23.316616,13.913682 23.864153,14.063396 24.542793,14.439260 
z"/>
</svg>